# xmcd
#
# Track frame offsets: 
#        150
#        20877
#        37497
#        54005
#        75750
#        88829
#        99282
#        113042
#        129875
#        145726
#        161706
#        177598
#
# Disc length: 2658 seconds
#
# Revision: 0
# Processed by: cddbd v1.5PL3 Copyright (c) Steve Scherf et al.
# Submitted via: ExactAudioCopy v0.90b4
#
DISCID=950a600c
DTITLE=Doctordoctor - Heilen durch Handauflegen
DYEAR=2002
DGENRE=Blues
TTITLE0=Samstagnacht
TTITLE1=Alpenglühn
TTITLE2=Einer geht noch
TTITLE3=Gentlemen
TTITLE4=Spass, spass, spass
TTITLE5=Da kann keiner widerstehen
TTITLE6=Anne Eck.. (der Pauli Song)
TTITLE7=Immer gern gesehen
TTITLE8=High Heels and Bodylotion
TTITLE9=Indianermund
TTITLE10=Und schon wieder
TTITLE11=Einer für alle
EXTD=
EXTT0=
EXTT1=
EXTT2=
EXTT3=
EXTT4=
EXTT5=
EXTT6=
EXTT7=
EXTT8=
EXTT9=
EXTT10=
EXTT11=
PLAYORDER=
